<?xml version="1.0" encoding="UTF-8"?>
<svg id="Capa_1" xmlns="http://www.w3.org/2000/svg" xmlns:xlink="http://www.w3.org/1999/xlink" version="1.1" viewBox="0 0 595.28 841.89">
  <!-- Generator: Adobe Illustrator 29.4.0, SVG Export Plug-In . SVG Version: 2.1.0 Build 152)  -->
  <defs>
    <style>
      .st0 {
        fill: url(#Degradado_sin_nombre_1415);
      }

      .st1 {
        fill: url(#Degradado_sin_nombre_1413);
      }

      .st2 {
        fill: url(#Degradado_sin_nombre_1416);
      }

      .st3 {
        fill: url(#Degradado_sin_nombre_1419);
      }

      .st4 {
        fill: url(#Degradado_sin_nombre_1417);
      }

      .st5 {
        fill: url(#Degradado_sin_nombre_1418);
      }

      .st6 {
        fill: url(#Degradado_sin_nombre_1414);
      }

      .st7 {
        fill: url(#Degradado_sin_nombre_1411);
      }

      .st8 {
        fill: url(#Degradado_sin_nombre_1412);
      }

      .st9 {
        fill: url(#Degradado_sin_nombre_1410);
      }

      .st10 {
        fill: url(#Degradado_sin_nombre_1425);
      }

      .st11 {
        fill: url(#Degradado_sin_nombre_1424);
      }

      .st12 {
        fill: url(#Degradado_sin_nombre_1427);
      }

      .st13 {
        fill: url(#Degradado_sin_nombre_1426);
      }

      .st14 {
        fill: url(#Degradado_sin_nombre_1428);
      }

      .st15 {
        fill: url(#Degradado_sin_nombre_1421);
      }

      .st16 {
        fill: url(#Degradado_sin_nombre_1423);
      }

      .st17 {
        fill: url(#Degradado_sin_nombre_1420);
      }

      .st18 {
        fill: url(#Degradado_sin_nombre_1422);
      }

      .st19 {
        fill: url(#Degradado_sin_nombre_1429);
      }

      .st20 {
        fill: url(#Degradado_sin_nombre_1491);
      }

      .st21 {
        fill: url(#Degradado_sin_nombre_1490);
      }

      .st22 {
        fill: url(#Degradado_sin_nombre_1455);
      }

      .st23 {
        fill: url(#Degradado_sin_nombre_1450);
      }

      .st24 {
        fill: url(#Degradado_sin_nombre_1451);
      }

      .st25 {
        fill: url(#Degradado_sin_nombre_1453);
      }

      .st26 {
        fill: url(#Degradado_sin_nombre_1456);
      }

      .st27 {
        fill: url(#Degradado_sin_nombre_1452);
      }

      .st28 {
        fill: url(#Degradado_sin_nombre_1464);
      }

      .st29 {
        fill: url(#Degradado_sin_nombre_1465);
      }

      .st30 {
        fill: url(#Degradado_sin_nombre_1461);
      }

      .st31 {
        fill: url(#Degradado_sin_nombre_1466);
      }

      .st32 {
        fill: url(#Degradado_sin_nombre_1460);
      }

      .st33 {
        fill: url(#Degradado_sin_nombre_1462);
      }

      .st34 {
        fill: url(#Degradado_sin_nombre_1459);
      }

      .st35 {
        fill: url(#Degradado_sin_nombre_1454);
      }

      .st36 {
        fill: url(#Degradado_sin_nombre_1457);
      }

      .st37 {
        fill: url(#Degradado_sin_nombre_1458);
      }

      .st38 {
        fill: url(#Degradado_sin_nombre_1479);
      }

      .st39 {
        fill: url(#Degradado_sin_nombre_1478);
      }

      .st40 {
        fill: url(#Degradado_sin_nombre_1480);
      }

      .st41 {
        fill: url(#Degradado_sin_nombre_1482);
      }

      .st42 {
        fill: url(#Degradado_sin_nombre_1481);
      }

      .st43 {
        fill: url(#Degradado_sin_nombre_1484);
      }

      .st44 {
        fill: url(#Degradado_sin_nombre_1483);
      }

      .st45 {
        fill: url(#Degradado_sin_nombre_1486);
      }

      .st46 {
        fill: url(#Degradado_sin_nombre_1485);
      }

      .st47 {
        fill: url(#Degradado_sin_nombre_1488);
      }

      .st48 {
        fill: url(#Degradado_sin_nombre_1487);
      }

      .st49 {
        fill: url(#Degradado_sin_nombre_1489);
      }

      .st50 {
        fill: url(#Degradado_sin_nombre_1463);
      }

      .st51 {
        fill: url(#Degradado_sin_nombre_1468);
      }

      .st52 {
        fill: url(#Degradado_sin_nombre_1467);
      }

      .st53 {
        fill: url(#Degradado_sin_nombre_1469);
      }

      .st54 {
        fill: url(#Degradado_sin_nombre_1435);
      }

      .st55 {
        fill: url(#Degradado_sin_nombre_1434);
      }

      .st56 {
        fill: url(#Degradado_sin_nombre_1431);
      }

      .st57 {
        fill: url(#Degradado_sin_nombre_1430);
      }

      .st58 {
        fill: url(#Degradado_sin_nombre_1437);
      }

      .st59 {
        fill: url(#Degradado_sin_nombre_1436);
      }

      .st60 {
        fill: url(#Degradado_sin_nombre_1433);
      }

      .st61 {
        fill: url(#Degradado_sin_nombre_1432);
      }

      .st62 {
        fill: url(#Degradado_sin_nombre_1439);
      }

      .st63 {
        fill: url(#Degradado_sin_nombre_1438);
      }

      .st64 {
        fill: url(#Degradado_sin_nombre_1444);
      }

      .st65 {
        fill: url(#Degradado_sin_nombre_1447);
      }

      .st66 {
        fill: url(#Degradado_sin_nombre_1446);
      }

      .st67 {
        fill: url(#Degradado_sin_nombre_1441);
      }

      .st68 {
        fill: url(#Degradado_sin_nombre_1440);
      }

      .st69 {
        fill: url(#Degradado_sin_nombre_1443);
      }

      .st70 {
        fill: url(#Degradado_sin_nombre_1442);
      }

      .st71 {
        fill: url(#Degradado_sin_nombre_1445);
      }

      .st72 {
        fill: url(#Degradado_sin_nombre_1449);
      }

      .st73 {
        fill: url(#Degradado_sin_nombre_1448);
      }

      .st74 {
        fill: url(#Degradado_sin_nombre_1474);
      }

      .st75 {
        fill: url(#Degradado_sin_nombre_1471);
      }

      .st76 {
        fill: url(#Degradado_sin_nombre_1472);
      }

      .st77 {
        fill: url(#Degradado_sin_nombre_1470);
      }

      .st78 {
        fill: url(#Degradado_sin_nombre_1475);
      }

      .st79 {
        fill: url(#Degradado_sin_nombre_1473);
      }

      .st80 {
        fill: url(#Degradado_sin_nombre_1476);
      }

      .st81 {
        fill: url(#Degradado_sin_nombre_1477);
      }

      .st82 {
        fill: #fff;
      }

      .st83 {
        fill: url(#Degradado_sin_nombre_144);
      }

      .st84 {
        fill: url(#Degradado_sin_nombre_143);
      }

      .st85 {
        fill: url(#Degradado_sin_nombre_142);
      }

      .st86 {
        fill: url(#Degradado_sin_nombre_141);
      }

      .st87 {
        fill: url(#Degradado_sin_nombre_149);
      }

      .st88 {
        fill: url(#Degradado_sin_nombre_148);
      }

      .st89 {
        fill: url(#Degradado_sin_nombre_147);
      }

      .st90 {
        fill: url(#Degradado_sin_nombre_146);
      }

      .st91 {
        fill: url(#Degradado_sin_nombre_145);
      }

      .st92 {
        fill: url(#Degradado_sin_nombre_14);
      }
    </style>
    <linearGradient id="Degradado_sin_nombre_14" data-name="Degradado sin nombre 14" x1="235.98" y1="-981.99" x2="377.71" y2="-810.07" gradientTransform="translate(-2.04 1039.3) rotate(.12) scale(1 .73)" gradientUnits="userSpaceOnUse">
      <stop offset="0" stop-color="#91bd21"/>
      <stop offset=".46" stop-color="#8fbc21"/>
      <stop offset=".63" stop-color="#88ba23"/>
      <stop offset=".75" stop-color="#7cb725"/>
      <stop offset=".84" stop-color="#6bb22a"/>
      <stop offset=".93" stop-color="#55ac2f"/>
      <stop offset="1" stop-color="#3ba535"/>
      <stop offset="1" stop-color="#3aa536"/>
    </linearGradient>
    <linearGradient id="Degradado_sin_nombre_141" data-name="Degradado sin nombre 14" x1="235.44" y1="-981.73" x2="377.17" y2="-809.81" gradientTransform="translate(-2.04 1039.59) rotate(.12) scale(1 .73)" xlink:href="#Degradado_sin_nombre_14"/>
    <linearGradient id="Degradado_sin_nombre_142" data-name="Degradado sin nombre 14" x1="234.9" y1="-981.47" x2="376.63" y2="-809.55" gradientTransform="translate(-2.04 1039.88) rotate(.12) scale(1 .73)" xlink:href="#Degradado_sin_nombre_14"/>
    <linearGradient id="Degradado_sin_nombre_143" data-name="Degradado sin nombre 14" x1="234.36" y1="-981.21" x2="376.09" y2="-809.29" gradientTransform="translate(-2.05 1040.17) rotate(.12) scale(1 .73)" xlink:href="#Degradado_sin_nombre_14"/>
    <linearGradient id="Degradado_sin_nombre_144" data-name="Degradado sin nombre 14" x1="233.82" y1="-980.95" x2="375.55" y2="-809.03" gradientTransform="translate(-2.05 1040.46) rotate(.12) scale(1 .73)" xlink:href="#Degradado_sin_nombre_14"/>
    <linearGradient id="Degradado_sin_nombre_145" data-name="Degradado sin nombre 14" x1="233.28" y1="-980.69" x2="375.01" y2="-808.77" gradientTransform="translate(-2.05 1040.75) rotate(.12) scale(1 .73)" xlink:href="#Degradado_sin_nombre_14"/>
    <linearGradient id="Degradado_sin_nombre_146" data-name="Degradado sin nombre 14" x1="232.74" y1="-980.43" x2="374.47" y2="-808.51" gradientTransform="translate(-2.05 1041.04) rotate(.12) scale(1 .73)" xlink:href="#Degradado_sin_nombre_14"/>
    <linearGradient id="Degradado_sin_nombre_147" data-name="Degradado sin nombre 14" x1="232.21" y1="-980.17" x2="373.93" y2="-808.25" gradientTransform="translate(-2.05 1041.33) rotate(.12) scale(1 .73)" xlink:href="#Degradado_sin_nombre_14"/>
    <linearGradient id="Degradado_sin_nombre_148" data-name="Degradado sin nombre 14" x1="231.67" y1="-979.91" x2="373.39" y2="-807.98" gradientTransform="translate(-2.05 1041.61) rotate(.12) scale(1 .73)" xlink:href="#Degradado_sin_nombre_14"/>
    <linearGradient id="Degradado_sin_nombre_149" data-name="Degradado sin nombre 14" x1="231.13" y1="-979.65" x2="372.86" y2="-807.72" gradientTransform="translate(-2.05 1041.9) rotate(.12) scale(1 .73)" xlink:href="#Degradado_sin_nombre_14"/>
    <linearGradient id="Degradado_sin_nombre_1410" data-name="Degradado sin nombre 14" x1="230.59" y1="-979.38" x2="372.32" y2="-807.46" gradientTransform="translate(-2.05 1042.19) rotate(.12) scale(1 .73)" xlink:href="#Degradado_sin_nombre_14"/>
    <linearGradient id="Degradado_sin_nombre_1411" data-name="Degradado sin nombre 14" x1="230.05" y1="-979.12" x2="371.78" y2="-807.2" gradientTransform="translate(-2.05 1042.48) rotate(.12) scale(1 .73)" xlink:href="#Degradado_sin_nombre_14"/>
    <linearGradient id="Degradado_sin_nombre_1412" data-name="Degradado sin nombre 14" x1="229.51" y1="-978.86" x2="371.24" y2="-806.94" gradientTransform="translate(-2.05 1042.77) rotate(.12) scale(1 .73)" xlink:href="#Degradado_sin_nombre_14"/>
    <linearGradient id="Degradado_sin_nombre_1413" data-name="Degradado sin nombre 14" x1="228.97" y1="-978.6" x2="370.7" y2="-806.68" gradientTransform="translate(-2.05 1043.06) rotate(.12) scale(1 .73)" xlink:href="#Degradado_sin_nombre_14"/>
    <linearGradient id="Degradado_sin_nombre_1414" data-name="Degradado sin nombre 14" x1="228.43" y1="-978.34" x2="370.16" y2="-806.42" gradientTransform="translate(-2.05 1043.35) rotate(.12) scale(1 .73)" xlink:href="#Degradado_sin_nombre_14"/>
    <linearGradient id="Degradado_sin_nombre_1415" data-name="Degradado sin nombre 14" x1="227.9" y1="-978.08" x2="369.62" y2="-806.16" gradientTransform="translate(-2.05 1043.64) rotate(.12) scale(1 .73)" xlink:href="#Degradado_sin_nombre_14"/>
    <linearGradient id="Degradado_sin_nombre_1416" data-name="Degradado sin nombre 14" x1="227.36" y1="-977.82" x2="369.08" y2="-805.9" gradientTransform="translate(-2.05 1043.92) rotate(.12) scale(1 .73)" xlink:href="#Degradado_sin_nombre_14"/>
    <linearGradient id="Degradado_sin_nombre_1417" data-name="Degradado sin nombre 14" x1="226.82" y1="-977.56" x2="368.55" y2="-805.64" gradientTransform="translate(-2.05 1044.21) rotate(.12) scale(1 .73)" xlink:href="#Degradado_sin_nombre_14"/>
    <linearGradient id="Degradado_sin_nombre_1418" data-name="Degradado sin nombre 14" x1="226.28" y1="-977.3" x2="368.01" y2="-805.37" gradientTransform="translate(-2.05 1044.5) rotate(.12) scale(1 .73)" xlink:href="#Degradado_sin_nombre_14"/>
    <linearGradient id="Degradado_sin_nombre_1419" data-name="Degradado sin nombre 14" x1="225.74" y1="-977.04" x2="367.47" y2="-805.11" gradientTransform="translate(-2.05 1044.79) rotate(.12) scale(1 .73)" xlink:href="#Degradado_sin_nombre_14"/>
    <linearGradient id="Degradado_sin_nombre_1420" data-name="Degradado sin nombre 14" x1="225.2" y1="-976.77" x2="366.93" y2="-804.85" gradientTransform="translate(-2.06 1045.08) rotate(.12) scale(1 .73)" xlink:href="#Degradado_sin_nombre_14"/>
    <linearGradient id="Degradado_sin_nombre_1421" data-name="Degradado sin nombre 14" x1="224.66" y1="-976.51" x2="366.39" y2="-804.59" gradientTransform="translate(-2.06 1045.37) rotate(.12) scale(1 .73)" xlink:href="#Degradado_sin_nombre_14"/>
    <linearGradient id="Degradado_sin_nombre_1422" data-name="Degradado sin nombre 14" x1="224.12" y1="-976.25" x2="365.85" y2="-804.33" gradientTransform="translate(-2.06 1045.66) rotate(.12) scale(1 .73)" xlink:href="#Degradado_sin_nombre_14"/>
    <linearGradient id="Degradado_sin_nombre_1423" data-name="Degradado sin nombre 14" x1="223.58" y1="-975.99" x2="365.31" y2="-804.07" gradientTransform="translate(-2.06 1045.95) rotate(.12) scale(1 .73)" xlink:href="#Degradado_sin_nombre_14"/>
    <linearGradient id="Degradado_sin_nombre_1424" data-name="Degradado sin nombre 14" x1="223.05" y1="-975.73" x2="364.77" y2="-803.81" gradientTransform="translate(-2.06 1046.23) rotate(.12) scale(1 .73)" xlink:href="#Degradado_sin_nombre_14"/>
    <linearGradient id="Degradado_sin_nombre_1425" data-name="Degradado sin nombre 14" x1="222.51" y1="-975.47" x2="364.23" y2="-803.55" gradientTransform="translate(-2.06 1046.52) rotate(.12) scale(1 .73)" xlink:href="#Degradado_sin_nombre_14"/>
    <linearGradient id="Degradado_sin_nombre_1426" data-name="Degradado sin nombre 14" x1="221.97" y1="-975.21" x2="363.7" y2="-803.29" gradientTransform="translate(-2.06 1046.81) rotate(.12) scale(1 .73)" xlink:href="#Degradado_sin_nombre_14"/>
    <linearGradient id="Degradado_sin_nombre_1427" data-name="Degradado sin nombre 14" x1="221.43" y1="-974.95" x2="363.16" y2="-803.02" gradientTransform="translate(-2.06 1047.1) rotate(.12) scale(1 .73)" xlink:href="#Degradado_sin_nombre_14"/>
    <linearGradient id="Degradado_sin_nombre_1428" data-name="Degradado sin nombre 14" x1="220.89" y1="-974.69" x2="362.62" y2="-802.76" gradientTransform="translate(-2.06 1047.39) rotate(.12) scale(1 .73)" xlink:href="#Degradado_sin_nombre_14"/>
    <linearGradient id="Degradado_sin_nombre_1429" data-name="Degradado sin nombre 14" x1="220.35" y1="-974.42" x2="362.08" y2="-802.5" gradientTransform="translate(-2.06 1047.68) rotate(.12) scale(1 .73)" xlink:href="#Degradado_sin_nombre_14"/>
    <linearGradient id="Degradado_sin_nombre_1430" data-name="Degradado sin nombre 14" x1="219.81" y1="-974.16" x2="361.54" y2="-802.24" gradientTransform="translate(-2.06 1047.97) rotate(.12) scale(1 .73)" xlink:href="#Degradado_sin_nombre_14"/>
    <linearGradient id="Degradado_sin_nombre_1431" data-name="Degradado sin nombre 14" x1="219.27" y1="-973.9" x2="361" y2="-801.98" gradientTransform="translate(-2.06 1048.26) rotate(.12) scale(1 .73)" xlink:href="#Degradado_sin_nombre_14"/>
    <linearGradient id="Degradado_sin_nombre_1432" data-name="Degradado sin nombre 14" x1="218.74" y1="-973.64" x2="360.46" y2="-801.72" gradientTransform="translate(-2.06 1048.54) rotate(.12) scale(1 .73)" xlink:href="#Degradado_sin_nombre_14"/>
    <linearGradient id="Degradado_sin_nombre_1433" data-name="Degradado sin nombre 14" x1="218.2" y1="-973.38" x2="359.92" y2="-801.46" gradientTransform="translate(-2.06 1048.83) rotate(.12) scale(1 .73)" xlink:href="#Degradado_sin_nombre_14"/>
    <linearGradient id="Degradado_sin_nombre_1434" data-name="Degradado sin nombre 14" x1="217.66" y1="-973.12" x2="359.39" y2="-801.19" gradientTransform="translate(-2.06 1049.12) rotate(.12) scale(1 .73)" xlink:href="#Degradado_sin_nombre_14"/>
    <linearGradient id="Degradado_sin_nombre_1435" data-name="Degradado sin nombre 14" x1="217.12" y1="-972.86" x2="358.85" y2="-800.93" gradientTransform="translate(-2.06 1049.41) rotate(.12) scale(1 .73)" xlink:href="#Degradado_sin_nombre_14"/>
    <linearGradient id="Degradado_sin_nombre_1436" data-name="Degradado sin nombre 14" x1="216.58" y1="-972.59" x2="358.31" y2="-800.67" gradientTransform="translate(-2.06 1049.7) rotate(.12) scale(1 .73)" xlink:href="#Degradado_sin_nombre_14"/>
    <linearGradient id="Degradado_sin_nombre_1437" data-name="Degradado sin nombre 14" x1="216.04" y1="-972.33" x2="357.77" y2="-800.41" gradientTransform="translate(-2.07 1049.99) rotate(.12) scale(1 .73)" xlink:href="#Degradado_sin_nombre_14"/>
    <linearGradient id="Degradado_sin_nombre_1438" data-name="Degradado sin nombre 14" x1="215.5" y1="-972.07" x2="357.23" y2="-800.15" gradientTransform="translate(-2.07 1050.28) rotate(.12) scale(1 .73)" xlink:href="#Degradado_sin_nombre_14"/>
    <linearGradient id="Degradado_sin_nombre_1439" data-name="Degradado sin nombre 14" x1="214.96" y1="-971.81" x2="356.69" y2="-799.89" gradientTransform="translate(-2.07 1050.57) rotate(.12) scale(1 .73)" xlink:href="#Degradado_sin_nombre_14"/>
    <linearGradient id="Degradado_sin_nombre_1440" data-name="Degradado sin nombre 14" x1="214.42" y1="-971.55" x2="356.15" y2="-799.62" gradientTransform="translate(-2.07 1050.85) rotate(.12) scale(1 .73)" xlink:href="#Degradado_sin_nombre_14"/>
    <linearGradient id="Degradado_sin_nombre_1441" data-name="Degradado sin nombre 14" x1="213.89" y1="-971.29" x2="355.61" y2="-799.36" gradientTransform="translate(-2.07 1051.14) rotate(.12) scale(1 .73)" xlink:href="#Degradado_sin_nombre_14"/>
    <linearGradient id="Degradado_sin_nombre_1442" data-name="Degradado sin nombre 14" x1="213.35" y1="-971.02" x2="355.08" y2="-799.1" gradientTransform="translate(-2.07 1051.43) rotate(.12) scale(1 .73)" xlink:href="#Degradado_sin_nombre_14"/>
    <linearGradient id="Degradado_sin_nombre_1443" data-name="Degradado sin nombre 14" x1="212.81" y1="-970.76" x2="354.54" y2="-798.84" gradientTransform="translate(-2.07 1051.72) rotate(.12) scale(1 .73)" xlink:href="#Degradado_sin_nombre_14"/>
    <linearGradient id="Degradado_sin_nombre_1444" data-name="Degradado sin nombre 14" x1="212.27" y1="-970.5" x2="354" y2="-798.58" gradientTransform="translate(-2.07 1052.01) rotate(.12) scale(1 .73)" xlink:href="#Degradado_sin_nombre_14"/>
    <linearGradient id="Degradado_sin_nombre_1445" data-name="Degradado sin nombre 14" x1="211.73" y1="-970.24" x2="353.46" y2="-798.32" gradientTransform="translate(-2.07 1052.3) rotate(.12) scale(1 .73)" xlink:href="#Degradado_sin_nombre_14"/>
    <linearGradient id="Degradado_sin_nombre_1446" data-name="Degradado sin nombre 14" x1="211.19" y1="-969.98" x2="352.92" y2="-798.05" gradientTransform="translate(-2.07 1052.59) rotate(.12) scale(1 .73)" xlink:href="#Degradado_sin_nombre_14"/>
    <linearGradient id="Degradado_sin_nombre_1447" data-name="Degradado sin nombre 14" x1="210.65" y1="-969.71" x2="352.38" y2="-797.79" gradientTransform="translate(-2.07 1052.88) rotate(.12) scale(1 .73)" xlink:href="#Degradado_sin_nombre_14"/>
    <linearGradient id="Degradado_sin_nombre_1448" data-name="Degradado sin nombre 14" x1="210.11" y1="-969.45" x2="351.84" y2="-797.53" gradientTransform="translate(-2.07 1053.16) rotate(.12) scale(1 .73)" xlink:href="#Degradado_sin_nombre_14"/>
    <linearGradient id="Degradado_sin_nombre_1449" data-name="Degradado sin nombre 14" x1="209.58" y1="-969.19" x2="351.3" y2="-797.27" gradientTransform="translate(-2.07 1053.45) rotate(.12) scale(1 .73)" xlink:href="#Degradado_sin_nombre_14"/>
    <linearGradient id="Degradado_sin_nombre_1450" data-name="Degradado sin nombre 14" x1="209.04" y1="-968.93" x2="350.76" y2="-797.01" gradientTransform="translate(-2.07 1053.74) rotate(.12) scale(1 .73)" xlink:href="#Degradado_sin_nombre_14"/>
    <linearGradient id="Degradado_sin_nombre_1451" data-name="Degradado sin nombre 14" x1="208.5" y1="-968.67" x2="350.23" y2="-796.74" gradientTransform="translate(-2.07 1054.03) rotate(.12) scale(1 .73)" xlink:href="#Degradado_sin_nombre_14"/>
    <linearGradient id="Degradado_sin_nombre_1452" data-name="Degradado sin nombre 14" x1="207.96" y1="-968.41" x2="349.69" y2="-796.48" gradientTransform="translate(-2.07 1054.32) rotate(.12) scale(1 .73)" xlink:href="#Degradado_sin_nombre_14"/>
    <linearGradient id="Degradado_sin_nombre_1453" data-name="Degradado sin nombre 14" x1="207.42" y1="-968.14" x2="349.15" y2="-796.22" gradientTransform="translate(-2.08 1054.61) rotate(.12) scale(1 .73)" xlink:href="#Degradado_sin_nombre_14"/>
    <linearGradient id="Degradado_sin_nombre_1454" data-name="Degradado sin nombre 14" x1="206.88" y1="-967.88" x2="348.61" y2="-795.96" gradientTransform="translate(-2.08 1054.9) rotate(.12) scale(1 .73)" xlink:href="#Degradado_sin_nombre_14"/>
    <linearGradient id="Degradado_sin_nombre_1455" data-name="Degradado sin nombre 14" x1="206.34" y1="-967.62" x2="348.07" y2="-795.7" gradientTransform="translate(-2.08 1055.19) rotate(.12) scale(1 .73)" xlink:href="#Degradado_sin_nombre_14"/>
    <linearGradient id="Degradado_sin_nombre_1456" data-name="Degradado sin nombre 14" x1="205.8" y1="-967.36" x2="347.53" y2="-795.43" gradientTransform="translate(-2.08 1055.47) rotate(.12) scale(1 .73)" xlink:href="#Degradado_sin_nombre_14"/>
    <linearGradient id="Degradado_sin_nombre_1457" data-name="Degradado sin nombre 14" x1="205.26" y1="-967.09" x2="346.99" y2="-795.17" gradientTransform="translate(-2.08 1055.76) rotate(.12) scale(1 .73)" xlink:href="#Degradado_sin_nombre_14"/>
    <linearGradient id="Degradado_sin_nombre_1458" data-name="Degradado sin nombre 14" x1="204.73" y1="-966.83" x2="346.45" y2="-794.91" gradientTransform="translate(-2.08 1056.05) rotate(.12) scale(1 .73)" xlink:href="#Degradado_sin_nombre_14"/>
    <linearGradient id="Degradado_sin_nombre_1459" data-name="Degradado sin nombre 14" x1="204.19" y1="-966.57" x2="345.92" y2="-794.65" gradientTransform="translate(-2.08 1056.34) rotate(.12) scale(1 .73)" xlink:href="#Degradado_sin_nombre_14"/>
    <linearGradient id="Degradado_sin_nombre_1460" data-name="Degradado sin nombre 14" x1="203.65" y1="-966.31" x2="345.38" y2="-794.39" gradientTransform="translate(-2.08 1056.63) rotate(.12) scale(1 .73)" xlink:href="#Degradado_sin_nombre_14"/>
    <linearGradient id="Degradado_sin_nombre_1461" data-name="Degradado sin nombre 14" x1="203.11" y1="-966.05" x2="344.84" y2="-794.12" gradientTransform="translate(-2.08 1056.92) rotate(.12) scale(1 .73)" xlink:href="#Degradado_sin_nombre_14"/>
    <linearGradient id="Degradado_sin_nombre_1462" data-name="Degradado sin nombre 14" x1="202.57" y1="-965.78" x2="344.3" y2="-793.86" gradientTransform="translate(-2.08 1057.21) rotate(.12) scale(1 .73)" xlink:href="#Degradado_sin_nombre_14"/>
    <linearGradient id="Degradado_sin_nombre_1463" data-name="Degradado sin nombre 14" x1="202.03" y1="-965.52" x2="343.76" y2="-793.6" gradientTransform="translate(-2.08 1057.5) rotate(.12) scale(1 .73)" xlink:href="#Degradado_sin_nombre_14"/>
    <linearGradient id="Degradado_sin_nombre_1464" data-name="Degradado sin nombre 14" x1="201.49" y1="-965.26" x2="343.22" y2="-793.34" gradientTransform="translate(-2.08 1057.79) rotate(.12) scale(1 .73)" xlink:href="#Degradado_sin_nombre_14"/>
    <linearGradient id="Degradado_sin_nombre_1465" data-name="Degradado sin nombre 14" x1="200.95" y1="-965" x2="342.68" y2="-793.07" gradientTransform="translate(-2.08 1058.07) rotate(.12) scale(1 .73)" xlink:href="#Degradado_sin_nombre_14"/>
    <linearGradient id="Degradado_sin_nombre_1466" data-name="Degradado sin nombre 14" x1="200.42" y1="-964.73" x2="342.14" y2="-792.81" gradientTransform="translate(-2.08 1058.36) rotate(.12) scale(1 .73)" xlink:href="#Degradado_sin_nombre_14"/>
    <linearGradient id="Degradado_sin_nombre_1467" data-name="Degradado sin nombre 14" x1="199.88" y1="-964.47" x2="341.6" y2="-792.55" gradientTransform="translate(-2.08 1058.65) rotate(.12) scale(1 .73)" xlink:href="#Degradado_sin_nombre_14"/>
    <linearGradient id="Degradado_sin_nombre_1468" data-name="Degradado sin nombre 14" x1="199.34" y1="-964.21" x2="341.07" y2="-792.29" gradientTransform="translate(-2.08 1058.94) rotate(.12) scale(1 .73)" xlink:href="#Degradado_sin_nombre_14"/>
    <linearGradient id="Degradado_sin_nombre_1469" data-name="Degradado sin nombre 14" x1="198.8" y1="-963.95" x2="340.53" y2="-792.03" gradientTransform="translate(-2.08 1059.23) rotate(.12) scale(1 .73)" xlink:href="#Degradado_sin_nombre_14"/>
    <linearGradient id="Degradado_sin_nombre_1470" data-name="Degradado sin nombre 14" x1="198.26" y1="-963.68" x2="339.99" y2="-791.76" gradientTransform="translate(-2.09 1059.52) rotate(.12) scale(1 .73)" xlink:href="#Degradado_sin_nombre_14"/>
    <linearGradient id="Degradado_sin_nombre_1471" data-name="Degradado sin nombre 14" x1="197.72" y1="-963.42" x2="339.45" y2="-791.5" gradientTransform="translate(-2.09 1059.81) rotate(.12) scale(1 .73)" xlink:href="#Degradado_sin_nombre_14"/>
    <linearGradient id="Degradado_sin_nombre_1472" data-name="Degradado sin nombre 14" x1="197.18" y1="-963.16" x2="338.91" y2="-791.24" gradientTransform="translate(-2.09 1060.1) rotate(.12) scale(1 .73)" xlink:href="#Degradado_sin_nombre_14"/>
    <linearGradient id="Degradado_sin_nombre_1473" data-name="Degradado sin nombre 14" x1="196.64" y1="-962.9" x2="338.37" y2="-790.98" gradientTransform="translate(-2.09 1060.38) rotate(.12) scale(1 .73)" xlink:href="#Degradado_sin_nombre_14"/>
    <linearGradient id="Degradado_sin_nombre_1474" data-name="Degradado sin nombre 14" x1="196.1" y1="-962.63" x2="337.83" y2="-790.71" gradientTransform="translate(-2.09 1060.67) rotate(.12) scale(1 .73)" xlink:href="#Degradado_sin_nombre_14"/>
    <linearGradient id="Degradado_sin_nombre_1475" data-name="Degradado sin nombre 14" x1="195.57" y1="-962.37" x2="337.29" y2="-790.45" gradientTransform="translate(-2.09 1060.96) rotate(.12) scale(1 .73)" xlink:href="#Degradado_sin_nombre_14"/>
    <linearGradient id="Degradado_sin_nombre_1476" data-name="Degradado sin nombre 14" x1="195.03" y1="-962.11" x2="336.76" y2="-790.19" gradientTransform="translate(-2.09 1061.25) rotate(.12) scale(1 .73)" xlink:href="#Degradado_sin_nombre_14"/>
    <linearGradient id="Degradado_sin_nombre_1477" data-name="Degradado sin nombre 14" x1="194.49" y1="-961.85" x2="336.22" y2="-789.92" gradientTransform="translate(-2.09 1061.54) rotate(.12) scale(1 .73)" xlink:href="#Degradado_sin_nombre_14"/>
    <linearGradient id="Degradado_sin_nombre_1478" data-name="Degradado sin nombre 14" x1="193.95" y1="-961.58" x2="335.68" y2="-789.66" gradientTransform="translate(-2.09 1061.83) rotate(.12) scale(1 .73)" xlink:href="#Degradado_sin_nombre_14"/>
    <linearGradient id="Degradado_sin_nombre_1479" data-name="Degradado sin nombre 14" x1="193.41" y1="-961.32" x2="335.14" y2="-789.4" gradientTransform="translate(-2.09 1062.12) rotate(.12) scale(1 .73)" xlink:href="#Degradado_sin_nombre_14"/>
    <linearGradient id="Degradado_sin_nombre_1480" data-name="Degradado sin nombre 14" x1="192.87" y1="-961.06" x2="334.6" y2="-789.14" gradientTransform="translate(-2.09 1062.41) rotate(.12) scale(1 .73)" xlink:href="#Degradado_sin_nombre_14"/>
    <linearGradient id="Degradado_sin_nombre_1481" data-name="Degradado sin nombre 14" x1="192.33" y1="-960.8" x2="334.06" y2="-788.87" gradientTransform="translate(-2.09 1062.69) rotate(.12) scale(1 .73)" xlink:href="#Degradado_sin_nombre_14"/>
    <linearGradient id="Degradado_sin_nombre_1482" data-name="Degradado sin nombre 14" x1="191.79" y1="-960.53" x2="333.52" y2="-788.61" gradientTransform="translate(-2.09 1062.98) rotate(.12) scale(1 .73)" xlink:href="#Degradado_sin_nombre_14"/>
    <linearGradient id="Degradado_sin_nombre_1483" data-name="Degradado sin nombre 14" x1="191.26" y1="-960.27" x2="332.98" y2="-788.35" gradientTransform="translate(-2.09 1063.27) rotate(.12) scale(1 .73)" xlink:href="#Degradado_sin_nombre_14"/>
    <linearGradient id="Degradado_sin_nombre_1484" data-name="Degradado sin nombre 14" x1="190.72" y1="-960.01" x2="332.44" y2="-788.09" gradientTransform="translate(-2.09 1063.56) rotate(.12) scale(1 .73)" xlink:href="#Degradado_sin_nombre_14"/>
    <linearGradient id="Degradado_sin_nombre_1485" data-name="Degradado sin nombre 14" x1="190.18" y1="-959.74" x2="331.91" y2="-787.82" gradientTransform="translate(-2.09 1063.85) rotate(.12) scale(1 .73)" xlink:href="#Degradado_sin_nombre_14"/>
    <linearGradient id="Degradado_sin_nombre_1486" data-name="Degradado sin nombre 14" x1="189.64" y1="-959.48" x2="331.37" y2="-787.56" gradientTransform="translate(-2.09 1064.14) rotate(.12) scale(1 .73)" xlink:href="#Degradado_sin_nombre_14"/>
    <linearGradient id="Degradado_sin_nombre_1487" data-name="Degradado sin nombre 14" x1="189.1" y1="-959.22" x2="330.83" y2="-787.3" gradientTransform="translate(-2.1 1064.43) rotate(.12) scale(1 .73)" xlink:href="#Degradado_sin_nombre_14"/>
    <linearGradient id="Degradado_sin_nombre_1488" data-name="Degradado sin nombre 14" x1="188.56" y1="-958.96" x2="330.29" y2="-787.03" gradientTransform="translate(-2.1 1064.72) rotate(.12) scale(1 .73)" xlink:href="#Degradado_sin_nombre_14"/>
    <linearGradient id="Degradado_sin_nombre_1489" data-name="Degradado sin nombre 14" x1="188.02" y1="-958.69" x2="329.75" y2="-786.77" gradientTransform="translate(-2.1 1065) rotate(.12) scale(1 .73)" xlink:href="#Degradado_sin_nombre_14"/>
    <linearGradient id="Degradado_sin_nombre_1490" data-name="Degradado sin nombre 14" x1="187.48" y1="-958.43" x2="329.21" y2="-786.51" gradientTransform="translate(-2.1 1065.29) rotate(.12) scale(1 .73)" xlink:href="#Degradado_sin_nombre_14"/>
    <linearGradient id="Degradado_sin_nombre_1491" data-name="Degradado sin nombre 14" x1="186.94" y1="-958.17" x2="328.67" y2="-786.24" gradientTransform="translate(-2.1 1065.58) rotate(.12) scale(1 .73)" xlink:href="#Degradado_sin_nombre_14"/>
  </defs>
  <g>
    <path class="st92" d="M222.68,455.22l.52-115.87c.02-7.62,8.45-13.78,18.84-13.76l161.87.33c10.39.02,18.8,6.22,18.79,13.84l-.52,115.87c-.02,7.62-8.45,13.78-18.84,13.76l-161.87-.33c-10.39-.02-18.8-6.22-18.79-13.84Z"/>
    <path class="st86" d="M222.14,455.73l.52-115.86c.02-7.62,8.45-13.78,18.84-13.76l161.87.33c10.39.02,18.8,6.22,18.79,13.84l-.52,115.86c-.02,7.62-8.45,13.78-18.84,13.76l-161.87-.33c-10.39-.02-18.8-6.22-18.79-13.84Z"/>
    <path class="st85" d="M221.6,456.24l.52-115.86c.02-7.62,8.45-13.78,18.84-13.76l161.87.33c10.39.02,18.8,6.22,18.79,13.84l-.52,115.86c-.02,7.62-8.45,13.78-18.84,13.76l-161.87-.33c-10.39-.02-18.8-6.22-18.79-13.84Z"/>
    <path class="st84" d="M221.06,456.75l.52-115.85c.02-7.62,8.45-13.78,18.84-13.76l161.87.33c10.39.02,18.8,6.22,18.79,13.84l-.52,115.85c-.02,7.62-8.45,13.78-18.84,13.76l-161.87-.33c-10.39-.02-18.8-6.22-18.79-13.84Z"/>
    <path class="st83" d="M220.52,457.26l.52-115.85c.02-7.62,8.45-13.78,18.84-13.76l161.87.33c10.39.02,18.8,6.22,18.79,13.84l-.52,115.85c-.02,7.62-8.45,13.78-18.84,13.76l-161.87-.33c-10.39-.02-18.8-6.22-18.79-13.84Z"/>
    <path class="st91" d="M219.98,457.77l.52-115.84c.02-7.62,8.45-13.78,18.84-13.76l161.87.33c10.39.02,18.8,6.22,18.79,13.83l-.52,115.84c-.02,7.62-8.45,13.78-18.84,13.76l-161.87-.33c-10.39-.02-18.8-6.22-18.79-13.83Z"/>
    <path class="st90" d="M219.44,458.28l.52-115.83c.02-7.62,8.45-13.78,18.84-13.76l161.87.33c10.39.02,18.8,6.22,18.79,13.83l-.52,115.83c-.02,7.62-8.45,13.78-18.84,13.76l-161.87-.33c-10.39-.02-18.8-6.22-18.79-13.83Z"/>
    <path class="st89" d="M218.9,458.79l.52-115.83c.02-7.62,8.45-13.78,18.84-13.76l161.87.33c10.39.02,18.8,6.21,18.79,13.83l-.52,115.83c-.02,7.62-8.45,13.78-18.84,13.76l-161.87-.33c-10.39-.02-18.8-6.21-18.79-13.83Z"/>
    <path class="st88" d="M218.36,459.3l.52-115.82c.02-7.62,8.45-13.78,18.84-13.76l161.87.33c10.39.02,18.8,6.21,18.79,13.83l-.52,115.82c-.02,7.62-8.45,13.78-18.84,13.76l-161.87-.33c-10.39-.02-18.8-6.21-18.79-13.83Z"/>
    <path class="st87" d="M217.82,459.8l.52-115.82c.02-7.62,8.45-13.78,18.84-13.75l161.87.33c10.39.02,18.8,6.21,18.79,13.83l-.52,115.82c-.02,7.62-8.45,13.78-18.84,13.75l-161.87-.33c-10.39-.02-18.8-6.21-18.79-13.83Z"/>
    <path class="st9" d="M217.28,460.31l.52-115.81c.02-7.62,8.45-13.78,18.84-13.75l161.87.33c10.39.02,18.8,6.21,18.79,13.83l-.52,115.81c-.02,7.62-8.45,13.78-18.84,13.75l-161.87-.33c-10.39-.02-18.8-6.21-18.79-13.83Z"/>
    <path class="st7" d="M216.74,460.82l.52-115.8c.02-7.62,8.45-13.77,18.84-13.75l161.87.33c10.39.02,18.8,6.21,18.79,13.83l-.52,115.8c-.02,7.62-8.45,13.77-18.84,13.75l-161.87-.33c-10.39-.02-18.8-6.21-18.79-13.83Z"/>
    <path class="st8" d="M216.2,461.33l.52-115.8c.02-7.62,8.45-13.77,18.84-13.75l161.87.33c10.39.02,18.8,6.21,18.79,13.83l-.52,115.8c-.02,7.62-8.45,13.77-18.84,13.75l-161.87-.33c-10.39-.02-18.8-6.21-18.79-13.83Z"/>
    <path class="st1" d="M215.66,461.84l.52-115.79c.02-7.62,8.45-13.77,18.84-13.75l161.87.33c10.39.02,18.8,6.21,18.79,13.83l-.52,115.79c-.02,7.62-8.45,13.77-18.84,13.75l-161.87-.33c-10.39-.02-18.8-6.21-18.79-13.83Z"/>
    <path class="st6" d="M215.12,462.35l.52-115.79c.02-7.62,8.45-13.77,18.84-13.75l161.87.33c10.39.02,18.8,6.21,18.79,13.83l-.52,115.79c-.02,7.62-8.45,13.77-18.84,13.75l-161.87-.33c-10.39-.02-18.8-6.21-18.79-13.83Z"/>
    <path class="st0" d="M214.58,462.86l.52-115.78c.02-7.62,8.45-13.77,18.84-13.75l161.87.33c10.39.02,18.8,6.21,18.79,13.83l-.52,115.78c-.02,7.62-8.45,13.77-18.84,13.75l-161.87-.33c-10.39-.02-18.8-6.21-18.79-13.83Z"/>
    <path class="st2" d="M214.04,463.37l.52-115.77c.02-7.62,8.45-13.77,18.84-13.75l161.87.33c10.39.02,18.8,6.21,18.79,13.83l-.52,115.77c-.02,7.62-8.45,13.77-18.84,13.75l-161.87-.33c-10.39-.02-18.8-6.21-18.79-13.83Z"/>
    <path class="st4" d="M213.5,463.87l.52-115.77c.02-7.61,8.45-13.77,18.84-13.75l161.87.33c10.39.02,18.8,6.21,18.79,13.83l-.52,115.77c-.02,7.61-8.45,13.77-18.84,13.75l-161.87-.33c-10.39-.02-18.8-6.21-18.79-13.83Z"/>
    <path class="st5" d="M212.96,464.38l.52-115.76c.02-7.61,8.45-13.77,18.84-13.75l161.87.33c10.39.02,18.8,6.21,18.79,13.83l-.52,115.76c-.02,7.61-8.45,13.77-18.84,13.75l-161.87-.33c-10.39-.02-18.8-6.21-18.79-13.83Z"/>
    <path class="st3" d="M212.42,464.89l.52-115.76c.02-7.61,8.45-13.77,18.84-13.75l161.87.33c10.39.02,18.8,6.21,18.79,13.82l-.52,115.76c-.02,7.61-8.45,13.77-18.84,13.75l-161.87-.33c-10.39-.02-18.8-6.21-18.79-13.82Z"/>
    <path class="st17" d="M211.88,465.4l.52-115.75c.02-7.61,8.45-13.77,18.84-13.75l161.87.33c10.39.02,18.8,6.21,18.79,13.82l-.52,115.75c-.02,7.61-8.45,13.77-18.84,13.75l-161.87-.33c-10.39-.02-18.8-6.21-18.79-13.82Z"/>
    <path class="st15" d="M211.34,465.91l.52-115.74c.02-7.61,8.45-13.77,18.84-13.75l161.87.33c10.39.02,18.8,6.21,18.79,13.82l-.52,115.74c-.02,7.61-8.45,13.77-18.84,13.75l-161.87-.33c-10.39-.02-18.8-6.21-18.79-13.82Z"/>
    <path class="st18" d="M210.8,466.42l.52-115.74c.02-7.61,8.45-13.77,18.84-13.75l161.87.33c10.39.02,18.8,6.21,18.79,13.82l-.52,115.74c-.02,7.61-8.45,13.77-18.84,13.75l-161.87-.33c-10.39-.02-18.8-6.21-18.79-13.82Z"/>
    <path class="st16" d="M210.26,466.93l.52-115.73c.02-7.61,8.45-13.77,18.84-13.74l161.87.33c10.39.02,18.8,6.21,18.79,13.82l-.52,115.73c-.02,7.61-8.45,13.77-18.84,13.74l-161.87-.33c-10.39-.02-18.8-6.21-18.79-13.82Z"/>
    <path class="st11" d="M209.72,467.44l.52-115.73c.02-7.61,8.45-13.77,18.84-13.74l161.87.33c10.39.02,18.8,6.21,18.79,13.82l-.52,115.73c-.02,7.61-8.45,13.77-18.84,13.74l-161.87-.33c-10.39-.02-18.8-6.21-18.79-13.82Z"/>
    <path class="st10" d="M209.18,467.95l.52-115.72c.02-7.61,8.45-13.76,18.84-13.74l161.87.33c10.39.02,18.8,6.21,18.79,13.82l-.52,115.72c-.02,7.61-8.45,13.76-18.84,13.74l-161.87-.33c-10.39-.02-18.8-6.21-18.79-13.82Z"/>
    <path class="st13" d="M208.64,468.45l.52-115.71c.02-7.61,8.45-13.76,18.84-13.74l161.87.33c10.39.02,18.8,6.21,18.79,13.82l-.52,115.71c-.02,7.61-8.45,13.76-18.84,13.74l-161.87-.33c-10.39-.02-18.8-6.21-18.79-13.82Z"/>
    <path class="st12" d="M208.1,468.96l.52-115.71c.02-7.61,8.45-13.76,18.84-13.74l161.87.33c10.39.02,18.8,6.21,18.79,13.82l-.52,115.71c-.02,7.61-8.45,13.76-18.84,13.74l-161.87-.33c-10.39-.02-18.8-6.21-18.79-13.82Z"/>
    <path class="st14" d="M207.56,469.47l.52-115.7c.02-7.61,8.45-13.76,18.84-13.74l161.87.33c10.39.02,18.8,6.21,18.79,13.82l-.52,115.7c-.02,7.61-8.45,13.76-18.84,13.74l-161.87-.33c-10.39-.02-18.8-6.21-18.79-13.82Z"/>
    <path class="st19" d="M207.02,469.98l.52-115.7c.02-7.61,8.45-13.76,18.84-13.74l161.87.33c10.39.02,18.8,6.21,18.79,13.82l-.52,115.7c-.02,7.61-8.45,13.76-18.84,13.74l-161.87-.33c-10.39-.02-18.8-6.21-18.79-13.82Z"/>
    <path class="st57" d="M206.48,470.49l.52-115.69c.02-7.61,8.45-13.76,18.84-13.74l161.87.33c10.39.02,18.8,6.21,18.79,13.82l-.52,115.69c-.02,7.61-8.45,13.76-18.84,13.74l-161.87-.33c-10.39-.02-18.8-6.21-18.79-13.82Z"/>
    <path class="st56" d="M205.94,471l.52-115.68c.02-7.61,8.45-13.76,18.84-13.74l161.87.33c10.39.02,18.8,6.21,18.79,13.82l-.52,115.68c-.02,7.61-8.45,13.76-18.84,13.74l-161.87-.33c-10.39-.02-18.8-6.21-18.79-13.82Z"/>
    <path class="st61" d="M205.4,471.51l.52-115.68c.02-7.61,8.45-13.76,18.84-13.74l161.87.33c10.39.02,18.8,6.21,18.79,13.82l-.52,115.68c-.02,7.61-8.45,13.76-18.84,13.74l-161.87-.33c-10.39-.02-18.8-6.21-18.79-13.82Z"/>
    <path class="st60" d="M204.86,472.02l.52-115.67c.02-7.61,8.45-13.76,18.84-13.74l161.87.33c10.39.02,18.8,6.21,18.79,13.81l-.52,115.67c-.02,7.61-8.45,13.76-18.84,13.74l-161.87-.33c-10.39-.02-18.8-6.21-18.79-13.81Z"/>
    <path class="st55" d="M204.32,472.52l.52-115.67c.02-7.61,8.45-13.76,18.84-13.74l161.87.33c10.39.02,18.8,6.21,18.79,13.81l-.52,115.67c-.02,7.61-8.45,13.76-18.84,13.74l-161.87-.33c-10.39-.02-18.8-6.21-18.79-13.81Z"/>
    <path class="st54" d="M203.78,473.03l.52-115.66c.02-7.61,8.45-13.76,18.84-13.74l161.87.33c10.39.02,18.8,6.21,18.79,13.81l-.52,115.66c-.02,7.61-8.45,13.76-18.84,13.74l-161.87-.33c-10.39-.02-18.8-6.21-18.79-13.81Z"/>
    <path class="st59" d="M203.24,473.54l.52-115.66c.02-7.61,8.45-13.76,18.84-13.74l161.87.33c10.39.02,18.8,6.21,18.79,13.81l-.52,115.66c-.02,7.61-8.45,13.76-18.84,13.74l-161.87-.33c-10.39-.02-18.8-6.21-18.79-13.81Z"/>
    <path class="st58" d="M202.7,474.05l.52-115.65c.02-7.61,8.45-13.76,18.84-13.73l161.87.33c10.39.02,18.8,6.21,18.79,13.81l-.52,115.65c-.02,7.61-8.45,13.76-18.84,13.73l-161.87-.33c-10.39-.02-18.8-6.21-18.79-13.81Z"/>
    <path class="st63" d="M202.16,474.56l.52-115.64c.02-7.61,8.45-13.76,18.84-13.73l161.87.33c10.39.02,18.8,6.2,18.79,13.81l-.52,115.64c-.02,7.61-8.45,13.76-18.84,13.73l-161.87-.33c-10.39-.02-18.8-6.2-18.79-13.81Z"/>
    <path class="st62" d="M201.62,475.07l.52-115.64c.02-7.61,8.45-13.75,18.84-13.73l161.87.33c10.39.02,18.8,6.2,18.79,13.81l-.52,115.64c-.02,7.61-8.45,13.75-18.84,13.73l-161.87-.33c-10.39-.02-18.8-6.2-18.79-13.81Z"/>
    <path class="st68" d="M201.08,475.58l.52-115.63c.02-7.61,8.45-13.75,18.84-13.73l161.87.33c10.39.02,18.8,6.2,18.79,13.81l-.52,115.63c-.02,7.61-8.45,13.75-18.84,13.73l-161.87-.33c-10.39-.02-18.8-6.2-18.79-13.81Z"/>
    <path class="st67" d="M200.54,476.09l.52-115.63c.02-7.61,8.45-13.75,18.84-13.73l161.87.33c10.39.02,18.8,6.2,18.79,13.81l-.52,115.63c-.02,7.61-8.45,13.75-18.84,13.73l-161.87-.33c-10.39-.02-18.8-6.2-18.79-13.81Z"/>
    <path class="st70" d="M200,476.6l.52-115.62c.02-7.6,8.45-13.75,18.84-13.73l161.87.33c10.39.02,18.8,6.2,18.79,13.81l-.52,115.62c-.02,7.6-8.45,13.75-18.84,13.73l-161.87-.33c-10.39-.02-18.8-6.2-18.79-13.81Z"/>
    <path class="st69" d="M199.46,477.1l.52-115.61c.02-7.6,8.45-13.75,18.84-13.73l161.87.33c10.39.02,18.8,6.2,18.79,13.81l-.52,115.61c-.02,7.6-8.45,13.75-18.84,13.73l-161.87-.33c-10.39-.02-18.8-6.2-18.79-13.81Z"/>
    <path class="st64" d="M198.92,477.61l.52-115.61c.02-7.6,8.45-13.75,18.84-13.73l161.87.33c10.39.02,18.8,6.2,18.79,13.81l-.52,115.61c-.02,7.6-8.45,13.75-18.84,13.73l-161.87-.33c-10.39-.02-18.8-6.2-18.79-13.81Z"/>
    <path class="st71" d="M198.38,478.12l.52-115.6c.02-7.6,8.45-13.75,18.84-13.73l161.87.33c10.39.02,18.8,6.2,18.79,13.81l-.52,115.6c-.02,7.6-8.45,13.75-18.84,13.73l-161.87-.33c-10.39-.02-18.8-6.2-18.79-13.81Z"/>
    <path class="st66" d="M197.84,478.63l.52-115.6c.02-7.6,8.45-13.75,18.84-13.73l161.87.33c10.39.02,18.8,6.2,18.79,13.81l-.52,115.6c-.02,7.6-8.45,13.75-18.84,13.73l-161.87-.33c-10.39-.02-18.8-6.2-18.79-13.81Z"/>
    <path class="st65" d="M197.3,479.14l.52-115.59c.02-7.6,8.45-13.75,18.84-13.73l161.87.33c10.39.02,18.8,6.2,18.79,13.8l-.52,115.59c-.02,7.6-8.45,13.75-18.84,13.73l-161.87-.33c-10.39-.02-18.8-6.2-18.79-13.8Z"/>
    <path class="st73" d="M196.76,479.65l.52-115.58c.02-7.6,8.45-13.75,18.84-13.73l161.87.33c10.39.02,18.8,6.2,18.79,13.8l-.52,115.58c-.02,7.6-8.45,13.75-18.84,13.73l-161.87-.33c-10.39-.02-18.8-6.2-18.79-13.8Z"/>
    <path class="st72" d="M196.22,480.16l.52-115.58c.02-7.6,8.45-13.75,18.84-13.73l161.87.33c10.39.02,18.8,6.2,18.79,13.8l-.52,115.58c-.02,7.6-8.45,13.75-18.84,13.73l-161.87-.33c-10.39-.02-18.8-6.2-18.79-13.8Z"/>
    <path class="st23" d="M195.68,480.67l.52-115.57c.02-7.6,8.45-13.75,18.84-13.73l161.87.33c10.39.02,18.8,6.2,18.79,13.8l-.52,115.57c-.02,7.6-8.45,13.75-18.84,13.73l-161.87-.33c-10.39-.02-18.8-6.2-18.79-13.8Z"/>
    <path class="st24" d="M195.14,481.17l.52-115.57c.02-7.6,8.45-13.75,18.84-13.72l161.87.33c10.39.02,18.8,6.2,18.79,13.8l-.52,115.57c-.02,7.6-8.45,13.75-18.84,13.72l-161.87-.33c-10.39-.02-18.8-6.2-18.79-13.8Z"/>
    <path class="st27" d="M194.6,481.68l.52-115.56c.02-7.6,8.45-13.75,18.84-13.72l161.87.33c10.39.02,18.8,6.2,18.79,13.8l-.52,115.56c-.02,7.6-8.45,13.75-18.84,13.72l-161.87-.33c-10.39-.02-18.8-6.2-18.79-13.8Z"/>
    <path class="st25" d="M194.06,482.19l.52-115.55c.02-7.6,8.45-13.74,18.84-13.72l161.87.33c10.39.02,18.8,6.2,18.79,13.8l-.52,115.55c-.02,7.6-8.45,13.74-18.84,13.72l-161.87-.33c-10.39-.02-18.8-6.2-18.79-13.8Z"/>
    <path class="st35" d="M193.52,482.7l.52-115.55c.02-7.6,8.45-13.74,18.84-13.72l161.87.33c10.39.02,18.8,6.2,18.79,13.8l-.52,115.55c-.02,7.6-8.45,13.74-18.84,13.72l-161.87-.33c-10.39-.02-18.8-6.2-18.79-13.8Z"/>
    <path class="st22" d="M192.98,483.21l.52-115.54c.02-7.6,8.45-13.74,18.84-13.72l161.87.33c10.39.02,18.8,6.2,18.79,13.8l-.52,115.54c-.02,7.6-8.45,13.74-18.84,13.72l-161.87-.33c-10.39-.02-18.8-6.2-18.79-13.8Z"/>
    <path class="st26" d="M192.44,483.72l.52-115.54c.02-7.6,8.45-13.74,18.84-13.72l161.87.33c10.39.02,18.8,6.2,18.79,13.8l-.52,115.54c-.02,7.6-8.45,13.74-18.84,13.72l-161.87-.33c-10.39-.02-18.8-6.2-18.79-13.8Z"/>
    <path class="st36" d="M191.9,484.23l.52-115.53c.02-7.6,8.45-13.74,18.84-13.72l161.87.33c10.39.02,18.8,6.2,18.79,13.8l-.52,115.53c-.02,7.6-8.45,13.74-18.84,13.72l-161.87-.33c-10.39-.02-18.8-6.2-18.79-13.8Z"/>
    <path class="st37" d="M191.37,484.74l.52-115.52c.02-7.6,8.45-13.74,18.84-13.72l161.87.33c10.39.02,18.8,6.2,18.79,13.8l-.52,115.52c-.02,7.6-8.45,13.74-18.84,13.72l-161.87-.33c-10.39-.02-18.8-6.2-18.79-13.8Z"/>
    <path class="st34" d="M190.83,485.25l.52-115.52c.02-7.6,8.45-13.74,18.84-13.72l161.87.33c10.39.02,18.8,6.2,18.79,13.8l-.52,115.52c-.02,7.6-8.45,13.74-18.84,13.72l-161.87-.33c-10.39-.02-18.8-6.2-18.79-13.8Z"/>
    <path class="st32" d="M190.29,485.75l.52-115.51c.02-7.6,8.45-13.74,18.84-13.72l161.87.33c10.39.02,18.8,6.2,18.79,13.8l-.52,115.51c-.02,7.6-8.45,13.74-18.84,13.72l-161.87-.33c-10.39-.02-18.8-6.2-18.79-13.8Z"/>
    <path class="st30" d="M189.75,486.26l.52-115.51c.02-7.6,8.45-13.74,18.84-13.72l161.87.33c10.39.02,18.8,6.2,18.79,13.8l-.52,115.51c-.02,7.6-8.45,13.74-18.84,13.72l-161.87-.33c-10.39-.02-18.8-6.2-18.79-13.8Z"/>
    <path class="st33" d="M189.21,486.77l.52-115.5c.02-7.6,8.45-13.74,18.84-13.72l161.87.33c10.39.02,18.8,6.2,18.79,13.79l-.52,115.5c-.02,7.6-8.45,13.74-18.84,13.72l-161.87-.33c-10.39-.02-18.8-6.2-18.79-13.79Z"/>
    <path class="st50" d="M188.67,487.28l.52-115.49c.02-7.6,8.45-13.74,18.84-13.72l161.87.33c10.39.02,18.8,6.2,18.79,13.79l-.52,115.49c-.02,7.6-8.45,13.74-18.84,13.72l-161.87-.33c-10.39-.02-18.8-6.2-18.79-13.79Z"/>
    <path class="st28" d="M188.13,487.79l.52-115.49c.02-7.6,8.45-13.74,18.84-13.72l161.87.33c10.39.02,18.8,6.2,18.79,13.79l-.52,115.49c-.02,7.6-8.45,13.74-18.84,13.72l-161.87-.33c-10.39-.02-18.8-6.2-18.79-13.79Z"/>
    <path class="st29" d="M187.59,488.3l.52-115.48c.02-7.6,8.45-13.74,18.84-13.71l161.87.33c10.39.02,18.8,6.2,18.79,13.79l-.52,115.48c-.02,7.6-8.45,13.74-18.84,13.71l-161.87-.33c-10.39-.02-18.8-6.2-18.79-13.79Z"/>
    <path class="st31" d="M187.05,488.81l.52-115.48c.02-7.6,8.45-13.74,18.84-13.71l161.87.33c10.39.02,18.8,6.2,18.79,13.79l-.52,115.48c-.02,7.6-8.45,13.74-18.84,13.71l-161.87-.33c-10.39-.02-18.8-6.2-18.79-13.79Z"/>
    <path class="st52" d="M186.51,489.32l.52-115.47c.02-7.6,8.45-13.73,18.84-13.71l161.87.33c10.39.02,18.8,6.2,18.79,13.79l-.52,115.47c-.02,7.6-8.45,13.73-18.84,13.71l-161.87-.33c-10.39-.02-18.8-6.2-18.79-13.79Z"/>
    <path class="st51" d="M185.97,489.82l.52-115.46c.02-7.59,8.45-13.73,18.84-13.71l161.87.33c10.39.02,18.8,6.2,18.79,13.79l-.52,115.46c-.02,7.59-8.45,13.73-18.84,13.71l-161.87-.33c-10.39-.02-18.8-6.2-18.79-13.79Z"/>
    <path class="st53" d="M185.43,490.33l.52-115.46c.02-7.59,8.45-13.73,18.84-13.71l161.87.33c10.39.02,18.8,6.2,18.79,13.79l-.52,115.46c-.02,7.59-8.45,13.73-18.84,13.71l-161.87-.33c-10.39-.02-18.8-6.2-18.79-13.79Z"/>
    <path class="st77" d="M184.89,490.84l.52-115.45c.02-7.59,8.45-13.73,18.84-13.71l161.87.33c10.39.02,18.8,6.19,18.79,13.79l-.52,115.45c-.02,7.59-8.45,13.73-18.84,13.71l-161.87-.33c-10.39-.02-18.8-6.19-18.79-13.79Z"/>
    <path class="st75" d="M184.35,491.35l.52-115.45c.02-7.59,8.45-13.73,18.84-13.71l161.87.33c10.39.02,18.8,6.19,18.79,13.79l-.52,115.45c-.02,7.59-8.45,13.73-18.84,13.71l-161.87-.33c-10.39-.02-18.8-6.19-18.79-13.79Z"/>
    <path class="st76" d="M183.81,491.86l.52-115.44c.02-7.59,8.45-13.73,18.84-13.71l161.87.33c10.39.02,18.8,6.19,18.79,13.79l-.52,115.44c-.02,7.59-8.45,13.73-18.84,13.71l-161.87-.33c-10.39-.02-18.8-6.19-18.79-13.79Z"/>
    <path class="st79" d="M183.27,492.37l.52-115.43c.02-7.59,8.45-13.73,18.84-13.71l161.87.33c10.39.02,18.8,6.19,18.79,13.79l-.52,115.43c-.02,7.59-8.45,13.73-18.84,13.71l-161.87-.33c-10.39-.02-18.8-6.19-18.79-13.79Z"/>
    <path class="st74" d="M182.73,492.88l.52-115.43c.02-7.59,8.45-13.73,18.84-13.71l161.87.33c10.39.02,18.8,6.19,18.79,13.79l-.52,115.43c-.02,7.59-8.45,13.73-18.84,13.71l-161.87-.33c-10.39-.02-18.8-6.19-18.79-13.79Z"/>
    <path class="st78" d="M182.19,493.39l.52-115.42c.02-7.59,8.45-13.73,18.84-13.71l161.87.33c10.39.02,18.8,6.19,18.79,13.79l-.52,115.42c-.02,7.59-8.45,13.73-18.84,13.71l-161.87-.33c-10.39-.02-18.8-6.19-18.79-13.79Z"/>
    <path class="st80" d="M181.65,493.9l.52-115.42c.02-7.59,8.45-13.73,18.84-13.71l161.87.33c10.39.02,18.8,6.19,18.79,13.78l-.52,115.42c-.02,7.59-8.45,13.73-18.84,13.71l-161.87-.33c-10.39-.02-18.8-6.19-18.79-13.78Z"/>
    <path class="st81" d="M181.11,494.4l.52-115.41c.02-7.59,8.45-13.73,18.84-13.71l161.87.33c10.39.02,18.8,6.19,18.79,13.78l-.52,115.41c-.02,7.59-8.45,13.73-18.84,13.71l-161.87-.33c-10.39-.02-18.8-6.19-18.79-13.78Z"/>
    <path class="st39" d="M180.57,494.91l.52-115.4c.02-7.59,8.45-13.73,18.84-13.71l161.87.33c10.39.02,18.8,6.19,18.79,13.78l-.52,115.4c-.02,7.59-8.45,13.73-18.84,13.71l-161.87-.33c-10.39-.02-18.8-6.19-18.79-13.78Z"/>
    <path class="st38" d="M180.03,495.42l.52-115.4c.02-7.59,8.45-13.73,18.84-13.71l161.87.33c10.39.02,18.8,6.19,18.79,13.78l-.52,115.4c-.02,7.59-8.45,13.73-18.84,13.71l-161.87-.33c-10.39-.02-18.8-6.19-18.79-13.78Z"/>
    <path class="st40" d="M179.49,495.93l.52-115.39c.02-7.59,8.45-13.73,18.84-13.7l161.87.33c10.39.02,18.8,6.19,18.79,13.78l-.52,115.39c-.02,7.59-8.45,13.73-18.84,13.7l-161.87-.33c-10.39-.02-18.8-6.19-18.79-13.78Z"/>
    <path class="st42" d="M178.95,496.44l.52-115.39c.02-7.59,8.45-13.72,18.84-13.7l161.87.33c10.39.02,18.8,6.19,18.79,13.78l-.52,115.39c-.02,7.59-8.45,13.72-18.84,13.7l-161.87-.33c-10.39-.02-18.8-6.19-18.79-13.78Z"/>
    <path class="st41" d="M178.41,496.95l.52-115.38c.02-7.59,8.45-13.72,18.84-13.7l161.87.33c10.39.02,18.8,6.19,18.79,13.78l-.52,115.38c-.02,7.59-8.45,13.72-18.84,13.7l-161.87-.33c-10.39-.02-18.8-6.19-18.79-13.78Z"/>
    <path class="st44" d="M177.87,497.46l.52-115.38c.02-7.59,8.45-13.72,18.84-13.7l161.87.33c10.39.02,18.8,6.19,18.79,13.78l-.52,115.38c-.02,7.59-8.45,13.72-18.84,13.7l-161.87-.33c-10.39-.02-18.8-6.19-18.79-13.78Z"/>
    <path class="st43" d="M177.33,497.97l.52-115.37c.02-7.59,8.45-13.72,18.84-13.7l161.87.33c10.39.02,18.8,6.19,18.79,13.78l-.52,115.37c-.02,7.59-8.45,13.72-18.84,13.7l-161.87-.33c-10.39-.02-18.8-6.19-18.79-13.78Z"/>
    <path class="st46" d="M176.79,498.47l.52-115.36c.02-7.59,8.45-13.72,18.84-13.7l161.87.33c10.39.02,18.8,6.19,18.79,13.78l-.52,115.36c-.02,7.59-8.45,13.72-18.84,13.7l-161.87-.33c-10.39-.02-18.8-6.19-18.79-13.78Z"/>
    <path class="st45" d="M176.25,498.98l.52-115.36c.02-7.59,8.45-13.72,18.84-13.7l161.87.33c10.39.02,18.8,6.19,18.79,13.78l-.52,115.36c-.02,7.59-8.45,13.72-18.84,13.7l-161.87-.33c-10.39-.02-18.8-6.19-18.79-13.78Z"/>
    <path class="st48" d="M175.71,499.49l.52-115.35c.02-7.59,8.45-13.72,18.84-13.7l161.87.33c10.39.02,18.8,6.19,18.79,13.78l-.52,115.35c-.02,7.59-8.45,13.72-18.84,13.7l-161.87-.33c-10.39-.02-18.8-6.19-18.79-13.78Z"/>
    <path class="st47" d="M175.17,500l.52-115.35c.02-7.59,8.45-13.72,18.84-13.7l161.87.33c10.39.02,18.8,6.19,18.79,13.78l-.52,115.35c-.02,7.59-8.45,13.72-18.84,13.7l-161.87-.33c-10.39-.02-18.8-6.19-18.79-13.78Z"/>
    <path class="st49" d="M174.63,500.51l.52-115.34c.02-7.59,8.45-13.72,18.84-13.7l161.87.33c10.39.02,18.8,6.19,18.79,13.78l-.52,115.34c-.02,7.59-8.45,13.72-18.84,13.7l-161.87-.33c-10.39-.02-18.8-6.19-18.79-13.78Z"/>
    <path class="st21" d="M174.09,501.02l.52-115.33c.02-7.59,8.45-13.72,18.84-13.7l161.87.33c10.39.02,18.8,6.19,18.79,13.77l-.52,115.33c-.02,7.59-8.45,13.72-18.84,13.7l-161.87-.33c-10.39-.02-18.8-6.19-18.79-13.77Z"/>
    <path class="st20" d="M173.55,501.53l.52-115.33c.02-7.59,8.45-13.72,18.84-13.7l161.87.33c10.39.02,18.8,6.19,18.79,13.77l-.52,115.33c-.02,7.59-8.45,13.72-18.84,13.7l-161.87-.33c-10.39-.02-18.8-6.19-18.79-13.77Z"/>
  </g>
  <g>
    <path class="st82" d="M238.64,345.1h13.76c10.81,0,14.8,8.46,14.8,17.83s-3.99,17.84-14.8,17.84h-1.91c-.58,0-1.04.47-1.04,1.04v9.97c0,.57-.47,1.04-1.04,1.04h-9.76c-.58,0-1.04-.47-1.04-1.04v-45.64c0-.57.47-1.04,1.04-1.04ZM255.36,362.93c0-2.3.49-6.02-2.96-6.02h-1.91c-.58,0-1.04.47-1.04,1.04v9.97c0,.57.47,1.04,1.04,1.04h1.91c3.44,0,2.96-3.72,2.96-6.03Z"/>
    <path class="st82" d="M282.59,380.76h-.05c-.58,0-1.04.47-1.04,1.04v9.97c0,.57-.47,1.04-1.04,1.04h-9.76c-.58,0-1.04-.47-1.04-1.04v-45.64c0-.57.47-1.04,1.04-1.04h13.76c10.81,0,14.79,8.46,14.79,17.84,0,5.4-1.32,10.48-4.49,13.83-.26.28-.35.66-.24,1.02l4.3,13.67c.1.33.05.65-.16.93-.2.28-.49.43-.84.43h-9.92c-.46,0-.85-.29-.99-.73l-3.33-10.59c-.14-.43-.53-.72-.99-.73ZM287.41,362.93c0-2.3.49-6.02-2.96-6.02h-1.91c-.58,0-1.04.47-1.04,1.04v9.97c0,.57.47,1.04,1.04,1.04h1.91c3.44,0,2.96-3.72,2.96-6.03Z"/>
    <path class="st82" d="M303.3,345.1h27.52c.58,0,1.04.47,1.04,1.04v9.73c0,.57-.47,1.04-1.04,1.04h-15.67c-.58,0-1.04.47-1.04,1.04v4.06c0,.57.47,1.04,1.04,1.04h12.07c.58,0,1.04.47,1.04,1.04v9.73c0,.57-.47,1.04-1.04,1.04h-12.07c-.58,0-1.04.47-1.04,1.04v4.06c0,.57.47,1.04,1.04,1.04h15.67c.58,0,1.04.47,1.04,1.04v9.73c0,.57-.47,1.04-1.04,1.04h-27.52c-.58,0-1.04-.47-1.04-1.04v-45.64c0-.57.48-1.04,1.04-1.04Z"/>
    <path class="st82" d="M348.97,345.1c10.73,0,13.68,6.96,14.5,14.76.05.49-.25.94-.71,1.1l-9.58,3.12c-.32.1-.63.06-.91-.13-.28-.18-.44-.46-.46-.79-.24-3.42-.91-6.24-2.83-6.24-2.97,0-2.96,6.78-2.96,12.04s-.02,12.04,2.96,12.04c1.92,0,2.6-2.83,2.83-6.24.02-.33.19-.61.46-.79.28-.19.59-.23.91-.13l9.58,3.13c.48.16.76.61.71,1.1-.81,7.79-3.77,14.75-14.49,14.75-14.89,0-14.8-13.42-14.8-23.86s-.09-23.86,14.79-23.86Z"/>
    <path class="st82" d="M367.2,345.1h9.75c.58,0,1.04.47,1.04,1.04v45.64c0,.57-.47,1.04-1.04,1.04h-9.75c-.58,0-1.04-.47-1.04-1.04v-45.64c0-.57.47-1.04,1.04-1.04Z"/>
    <path class="st82" d="M396.06,345.1c14.64,0,14.8,12.81,14.8,23.86s-.16,23.86-14.8,23.86-14.8-12.81-14.8-23.86.17-23.86,14.8-23.86ZM399.03,368.96c0-5.27.02-12.04-2.97-12.04s-2.96,6.78-2.96,12.04c0,2.17-.47,12.04,2.96,12.04s2.96-9.87,2.97-12.04Z"/>
  </g>
  <g>
    <path class="st82" d="M406.38,398.25h-162.97c-3.15,0-5.71,2.55-5.71,5.71v37.15c0,3.15,2.55,5.71,5.71,5.71h162.97c3.15,0,5.71-2.55,5.71-5.71v-37.15c0-3.15-2.55-5.71-5.71-5.71ZM264.64,412.77c0,.4-.32.72-.72.72h-10.86c-.4,0-.72.32-.72.72v2.81c0,.4.32.72.72.72h8.36c.4,0,.72.32.72.72v6.74c0,.4-.32.72-.72.72h-8.36c-.4,0-.72.32-.72.72v2.81c0,.4.32.72.72.72h10.86c.4,0,.72.32.72.72v6.74c0,.4-.32.72-.72.72h-19.06c-.4,0-.72-.32-.72-.72v-31.6c0-.4.33-.72.72-.72h19.06c.4,0,.72.32.72.72v6.73ZM276.36,438.36c-5.58,0-10.08-3.2-10.34-8.96-.02-.33.18-.62.49-.71l6.8-2.18c.22-.07.44-.04.63.09.19.13.3.32.31.56l.05.87v.04c.01,1.39.9,2.12,2.05,2.12s2.05-.74,2.05-2.14c0-4.64-12.4-1.9-12.4-12.33,0-6.81,4.48-10.39,10.25-10.39s10.08,3.19,10.35,8.95c.02.33-.19.62-.5.72l-6.8,2.18c-.22.07-.44.04-.63-.09-.19-.12-.3-.32-.31-.55l-.05-.87v-.04c0-1.39-.9-2.13-2.05-2.13s-2.05.74-2.05,2.14c0,4.63,12.4,1.9,12.4,12.33,0,6.81-4.48,10.39-10.25,10.39ZM298.88,430.01h-1.33c-.4,0-.72.32-.72.72v6.91c0,.4-.32.72-.72.72h-6.76c-.4,0-.72-.32-.72-.72v-31.6c0-.4.32-.72.72-.72h9.53c7.49,0,10.25,5.86,10.25,12.35s-2.77,12.35-10.25,12.35ZM331.34,412.77c0,.4-.32.72-.72.72h-10.86c-.4,0-.72.32-.72.72v2.81c0,.4.32.72.72.72h8.36c.4,0,.72.32.72.72v6.74c0,.4-.32.72-.72.72h-8.36c-.4,0-.72.32-.72.72v2.81c0,.4.32.72.72.72h10.86c.4,0,.72.32.72.72v6.74c0,.4-.32.72-.72.72h-19.06c-.4,0-.72-.32-.72-.72v-31.6c0-.4.33-.72.72-.72h19.06c.4,0,.72.32.72.72v6.73ZM343.19,430.18c1.33,0,1.8-1.96,1.96-4.32.02-.23.13-.42.32-.54.19-.13.41-.16.63-.09l6.64,2.17c.33.11.53.42.5.76-.56,5.4-2.61,10.21-10.04,10.21-10.32,0-10.25-9.29-10.25-16.52s-.06-16.52,10.25-16.52c7.43,0,9.47,4.82,10.04,10.22.03.34-.17.65-.5.76l-6.64,2.16c-.22.07-.44.04-.63-.09-.19-.12-.3-.32-.32-.54-.17-2.37-.63-4.32-1.96-4.32-2.06,0-2.05,4.69-2.05,8.34s-.01,8.34,2.05,8.34ZM363.29,437.64c0,.4-.32.72-.72.72h-6.75c-.4,0-.72-.32-.72-.72v-31.6c0-.4.32-.72.72-.72h6.75c.4,0,.72.32.72.72v31.6ZM385.29,438.12c-.14.16-.33.24-.54.24h-6.65c-.38,0-.7-.3-.72-.68l-.19-2.9c-.02-.38-.34-.67-.72-.67h-2.34c-.38,0-.7.29-.72.67l-.19,2.9c-.03.38-.34.68-.72.68h-6.65c-.21,0-.4-.08-.54-.24-.14-.16-.2-.35-.19-.56l3.52-31.6c.05-.36.35-.64.72-.64h11.86c.37,0,.68.28.72.64l3.52,31.6c.02.21-.04.4-.17.56ZM407.79,437.64c0,.4-.32.72-.72.72h-19.06c-.4,0-.72-.32-.72-.72v-31.6c0-.4.32-.72.72-.72h6.76c.4,0,.72.32.72.72v23.42c0,.4.32.72.72.72h10.86c.4,0,.72.32.72.72v6.74Z"/>
    <path class="st82" d="M375.3,413.49c-.3,0-.55.22-.56.52l-.71,11.15c-.01.21.06.39.19.54.14.15.32.23.53.23h1.11c.21,0,.39-.07.53-.23.14-.15.2-.33.19-.54l-.71-11.15c-.02-.29-.27-.52-.57-.52Z"/>
    <path class="st82" d="M298.88,413.49h-1.33c-.4,0-.72.32-.72.72v6.9c0,.4.32.72.72.72h1.33c2.38,0,2.05-2.58,2.05-4.18s.34-4.17-2.05-4.17Z"/>
  </g>
</svg>